<svg width="32" height="32" viewBox="0 0 32 32" fill="none" xmlns="http://www.w3.org/2000/svg">
<path d="M0.2375 0.18125L0.03125 0.362499V16V31.6375L0.2375 31.8187L0.4375 32H12.35C21 32 24.2937 31.9812 24.3937 31.9312C24.4687 31.8937 24.5812 31.8 24.6375 31.725C24.7375 31.6062 24.75 31.2625 24.75 27.1V22.6125L28.15 16.725C30.0187 13.4937 31.6187 10.7 31.7062 10.525C32.4312 9.09375 31.675 7.35 30.1187 6.86875C29.175 6.575 28.1062 6.8625 27.45 7.6C27.275 7.79375 26.675 8.7625 25.9687 9.99375L24.7812 12.0562L24.75 10.2312C24.7312 9.23125 24.7062 8.4 24.7 8.3875C24.6937 8.38125 24.5937 8.31875 24.4875 8.25C24.2 8.075 23.975 8.09375 23.7375 8.30625L23.5312 8.4875L23.5 11.4187L23.4687 14.3438L20.0187 20.3125L16.575 26.2812L16.3375 28.5125L16.1 30.75H8.675H1.25V16V1.25H12.3687H23.4937L23.5125 2.31875L23.5312 3.3875L23.7375 3.56875C24.0312 3.83125 24.3812 3.79375 24.6375 3.475C24.7375 3.3625 24.75 3.175 24.75 1.8875C24.75 1.00625 24.725 0.38125 24.6875 0.30625C24.5125 -0.0187492 25.2 0 12.35 0H0.4375L0.2375 0.18125ZM29.9062 8.11875C30.2375 8.26875 30.6 8.68125 30.6937 9.0125C30.75 9.2125 30.75 9.36875 30.7 9.6125C30.6312 9.9375 30.2687 10.625 30.1625 10.625C30.1312 10.625 29.5937 10.325 28.9625 9.9625L27.8125 9.3L27.9812 9.0125C28.275 8.4875 28.45 8.3 28.775 8.15C29.1562 7.96875 29.5625 7.95625 29.9062 8.11875ZM29.5125 11.8188C29.4875 11.925 20.5625 27.3875 20.4687 27.4938C20.4 27.5625 20.2 27.4688 19.225 26.9062C18.5875 26.5375 18.0625 26.225 18.0625 26.2188C18.0625 26.2 26.8375 10.975 27.1625 10.425C27.2062 10.3562 29.5312 11.7375 29.5125 11.8188ZM23.4812 30.7312C23.4687 30.7437 22.3687 30.7437 21.0375 30.7375L18.6187 30.7188L19.7312 29.9125C20.3437 29.4688 20.9187 29.0375 21.0125 28.95C21.1062 28.8625 21.7 27.9 22.325 26.8063L23.4687 24.825L23.4875 27.7687C23.4937 29.3812 23.4937 30.7188 23.4812 30.7312ZM18.625 28.0062C19.1125 28.2875 19.4937 28.525 19.4875 28.5375C19.3937 28.625 17.475 29.9937 17.4562 29.9813C17.4437 29.9688 17.4937 29.4562 17.5625 28.8375C17.6312 28.225 17.6875 27.6687 17.6875 27.6062C17.6875 27.55 17.7 27.5 17.7187 27.5C17.7375 27.5 18.1437 27.7312 18.625 28.0062Z" fill="white"/>
<path d="M23.7375 5.49375C23.5688 5.64375 23.5312 5.71875 23.5312 5.9375C23.5312 6.3875 24.0063 6.69375 24.3938 6.49375C24.9938 6.1875 24.775 5.3125 24.1 5.3125C24.0125 5.3125 23.85 5.39375 23.7375 5.49375Z" fill="white"/>
<path d="M5.675 6.80625C5.50625 6.95625 5.46875 7.03125 5.46875 7.25C5.46875 7.46875 5.50625 7.54375 5.675 7.69375L5.875 7.875H12.35C16.9938 7.875 18.8562 7.85625 18.9563 7.80625C19.275 7.64375 19.4125 7.2375 19.25 6.93125C19.075 6.6125 19.3063 6.625 12.35 6.625H5.875L5.675 6.80625Z" fill="white"/>
<path d="M5.675 10.3062C5.50625 10.4562 5.46875 10.5312 5.46875 10.75C5.46875 10.9687 5.50625 11.0437 5.675 11.1937L5.875 11.375H12.35C16.9938 11.375 18.8562 11.3562 18.9563 11.3062C19.275 11.1437 19.4125 10.7375 19.25 10.4312C19.075 10.1125 19.3063 10.125 12.35 10.125H5.875L5.675 10.3062Z" fill="white"/>
<path d="M5.675 13.8062C5.50625 13.9563 5.46875 14.0312 5.46875 14.25C5.46875 14.4688 5.50625 14.5437 5.675 14.6937L5.875 14.875H8.15625H10.4375L10.6375 14.6937C10.8063 14.5437 10.8438 14.4688 10.8438 14.25C10.8438 14.0312 10.8063 13.9563 10.6375 13.8062L10.4375 13.625H8.15625H5.875L5.675 13.8062Z" fill="white"/>
<path d="M13.7562 13.7125C13.3375 13.9438 13.35 14.6063 13.7812 14.8C14.0062 14.9 18.7562 14.9063 18.9562 14.8063C19.275 14.6438 19.4125 14.2375 19.25 13.9313C19.0875 13.6375 18.9812 13.625 16.3625 13.625C14.4437 13.6313 13.875 13.65 13.7562 13.7125Z" fill="white"/>
<path d="M5.675 17.3063C5.50625 17.4563 5.46875 17.5313 5.46875 17.75C5.46875 17.9688 5.50625 18.0438 5.675 18.1938L5.875 18.375H12.35C16.9938 18.375 18.8562 18.3563 18.9563 18.3063C19.275 18.1438 19.4125 17.7375 19.25 17.4313C19.075 17.1125 19.3063 17.125 12.35 17.125H5.875L5.675 17.3063Z" fill="white"/>
<path d="M5.675 20.8062C5.50625 20.9563 5.46875 21.0312 5.46875 21.25C5.46875 21.4688 5.50625 21.5437 5.675 21.6937L5.875 21.875H7.6875H9.5L9.7 21.6937C9.86875 21.5437 9.90625 21.4688 9.90625 21.25C9.90625 21.0312 9.86875 20.9563 9.7 20.8062L9.5 20.625H7.6875H5.875L5.675 20.8062Z" fill="white"/>
<path d="M11.8375 20.6875C11.4875 20.825 11.3875 21.3625 11.65 21.6688L11.8 21.8438L13.9188 21.8625C15.0813 21.875 16.1 21.8625 16.175 21.8438C16.5313 21.7563 16.7375 21.2688 16.5625 20.9313C16.4063 20.6438 16.2625 20.625 14.05 20.6313C12.9063 20.6313 11.9063 20.6563 11.8375 20.6875Z" fill="white"/>
<path d="M5.675 24.3062C5.50625 24.4563 5.46875 24.5312 5.46875 24.75C5.46875 24.9688 5.50625 25.0437 5.675 25.1937L5.875 25.375H8.7875C10.8062 25.375 11.7375 25.3562 11.8312 25.3062C12.15 25.1437 12.2875 24.7375 12.125 24.4312C11.9625 24.1313 11.8875 24.125 8.7875 24.125H5.875L5.675 24.3062Z" fill="white"/>
</svg>
